<svg width="26" height="26" viewBox="0 0 26 26" fill="none" xmlns="http://www.w3.org/2000/svg">
<path d="M26 17.4688C26 19.9367 24.6297 21.9375 21.9375 21.9375H4.0625C1.37028 21.9375 0 19.9367 0 17.4688V8.53125C0 6.06328 1.37028 4.0625 4.0625 4.0625H21.9375C24.6297 4.0625 26 6.06328 26 8.53125V17.4688Z" fill="#128807"/>
<path d="M23.2131 13.3209L13.0609 20.4547L2.90833 13.3209L13.0609 6.18719L23.2131 13.3209Z" fill="#F9CB38"/>
<path fill-rule="evenodd" clip-rule="evenodd" d="M17.0665 14.5632C16.6042 16.1342 15.1576 17.3302 13.5196 17.4927C11.3311 17.7117 9.41645 16.3207 8.95089 14.1704C8.81314 13.5385 8.83071 12.8826 9.00208 12.259C9.06586 12.1899 9.15401 12.1733 9.24176 12.1611C9.88185 12.0722 10.5289 12.0441 11.1743 12.077C11.8629 12.116 12.5458 12.2115 13.2096 12.3992C13.8909 12.5921 14.5506 12.844 15.1734 13.1787C15.6421 13.4278 16.0898 13.7144 16.512 14.0359C16.655 14.1468 16.8009 14.2557 16.9382 14.3739C16.9995 14.4267 17.0479 14.4836 17.0665 14.5632Z" fill="#002776"/>
<path fill-rule="evenodd" clip-rule="evenodd" d="M9.23163 11.6232C9.7561 10.4512 10.6405 9.67078 11.8629 9.30434C14.3248 8.56619 16.8504 10.1932 17.2165 12.7307C17.2733 13.1227 17.2758 13.5159 17.2157 13.9088C17.1535 13.9319 17.1072 13.899 17.0645 13.8637C16.6184 13.4991 16.1423 13.1727 15.6414 12.8879C15.2558 12.669 14.855 12.4778 14.4422 12.3159C14.3691 12.287 14.2773 12.272 14.2521 12.1741C14.2785 12.127 14.3118 12.0859 14.3516 12.0477C14.3658 12.0331 14.3865 12.0189 14.3674 11.9945C14.3609 11.9868 14.3475 11.9868 14.3362 11.988C14.3057 11.9913 14.3098 12.0124 14.311 12.0347C14.3134 12.1075 14.2712 12.1542 14.2155 12.1916C14.1168 12.2139 14.0221 12.1842 13.9421 12.1416C13.713 12.0213 13.4595 11.9803 13.2169 11.9133C12.8387 11.8105 12.4503 11.7524 12.0628 11.6919C11.7535 11.6425 11.4421 11.607 11.1296 11.5854C10.8453 11.5655 10.5556 11.5684 10.2692 11.5879C9.95678 11.6098 9.64357 11.6318 9.33278 11.6691C9.3133 11.672 9.2934 11.6692 9.27547 11.661C9.25754 11.6529 9.24232 11.6398 9.23163 11.6232Z" fill="#002776"/>
<path fill-rule="evenodd" clip-rule="evenodd" d="M14.2553 12.1489C14.2536 12.1985 14.2979 12.192 14.3247 12.2025C15.3738 12.6106 16.3494 13.1869 17.2132 13.9088C17.1883 14.1317 17.1389 14.3511 17.0661 14.5633C16.5579 14.1416 16.0375 13.7398 15.4618 13.4115C13.6422 12.3752 11.6939 11.9645 9.61102 12.1847C9.4079 12.2054 9.20477 12.233 9.00165 12.2578C9.05405 12.038 9.12068 11.8223 9.22996 11.6224C10.7506 11.4173 12.2447 11.5338 13.7109 11.9876C13.8929 12.0441 14.0664 12.1351 14.2606 12.1522L14.2553 12.1477" fill="#FEFEFE"/>
<path fill-rule="evenodd" clip-rule="evenodd" d="M16.1484 14.7672C16.0261 14.7542 16.159 14.9041 16.0355 14.9008C15.9278 14.8992 15.9221 14.8131 15.8693 14.7652C15.9099 14.7229 15.9819 14.7144 16.0046 14.6486C16.02 14.718 16.0854 14.7327 16.1484 14.7672Z" fill="#D9DFEA"/>
<path fill-rule="evenodd" clip-rule="evenodd" d="M11.5351 15.5188C11.4201 15.5322 11.5164 15.6573 11.4201 15.6593C11.323 15.6613 11.273 15.5894 11.2535 15.5151C11.2466 15.494 11.3401 15.4468 11.386 15.4119C11.3917 15.4854 11.468 15.4822 11.5351 15.5188Z" fill="#E9ECF3"/>
<path fill-rule="evenodd" clip-rule="evenodd" d="M13.0568 15.2925C12.8972 15.3957 13.026 15.1625 12.9321 15.1852C12.9626 15.1365 13.0487 15.1478 13.0544 15.0731C13.095 15.1153 13.1296 15.1641 13.1942 15.173C13.1019 15.1604 13.2023 15.3652 13.0568 15.2925Z" fill="#EDEFF5"/>
<path fill-rule="evenodd" clip-rule="evenodd" d="M9.75808 12.5552C9.7199 12.6279 9.69105 12.7091 9.57527 12.6604C9.51596 12.6356 9.57933 12.5543 9.50824 12.5466L9.63986 12.4308C9.6488 12.4499 9.65936 12.4682 9.6683 12.4873C9.67886 12.5357 9.77515 12.4715 9.75808 12.5552Z" fill="#F0F2F6"/>
<path fill-rule="evenodd" clip-rule="evenodd" d="M10.1266 14.3203C10.066 14.3394 10.1095 14.4987 9.97952 14.4292C9.96652 14.4227 9.90964 14.454 9.92021 14.4357C9.95433 14.3691 9.87796 14.3366 9.88974 14.2833C9.96083 14.3142 9.95677 14.1842 10.0295 14.2191C10.0348 14.2232 10.0348 14.2395 10.0384 14.25C10.0461 14.3004 10.1445 14.2374 10.1266 14.3203Z" fill="#ECEFF4"/>
<path fill-rule="evenodd" clip-rule="evenodd" d="M9.48753 14.7908C9.36281 14.8342 9.45584 14.6835 9.38434 14.6847C9.41765 14.6567 9.45503 14.6043 9.48834 14.6063C9.52815 14.6084 9.56471 14.6575 9.60128 14.6855C9.54684 14.7038 9.60412 14.8513 9.48753 14.7908Z" fill="#D9DFEA"/>
<path fill-rule="evenodd" clip-rule="evenodd" d="M14.3081 16.2285C14.1761 16.2886 14.3044 16.1111 14.2163 16.1342C14.2073 16.0664 14.3174 16.1074 14.3036 16.0359L14.4227 16.1314C14.3743 16.1533 14.4227 16.2914 14.3081 16.2285Z" fill="#D8DEEA"/>
<path fill-rule="evenodd" clip-rule="evenodd" d="M15.1531 16.1306C15.0438 16.1761 15.1108 16.029 15.0519 16.0144C15.0918 15.9888 15.1336 15.9616 15.1726 15.9352C15.1758 15.9953 15.2583 15.9733 15.2673 16.0266C15.2059 16.0302 15.2697 16.1627 15.1531 16.1306ZM15.9128 15.5838C15.7885 15.6467 15.8803 15.4814 15.8092 15.4883C15.8234 15.4355 15.9051 15.4554 15.9099 15.3944L16.0265 15.4818C15.9554 15.4798 16.0428 15.654 15.9128 15.5838Z" fill="#DCE1EC"/>
<path fill-rule="evenodd" clip-rule="evenodd" d="M10.8805 14.8253C10.7505 14.8988 10.8355 14.7343 10.7753 14.731C10.7814 14.6705 10.8732 14.6965 10.8773 14.6323C10.8895 14.6916 10.9683 14.6746 10.9854 14.7278C10.9078 14.7164 11.0183 14.9029 10.8805 14.8253Z" fill="#D4DAE7"/>
<path fill-rule="evenodd" clip-rule="evenodd" d="M11.4075 13.5911C11.334 13.5862 11.4282 13.4704 11.338 13.4778C11.3535 13.4128 11.4229 13.4262 11.4611 13.3924C11.4806 13.4335 11.5359 13.4428 11.5387 13.5017C11.5452 13.6094 11.4497 13.5537 11.4075 13.5911Z" fill="#F2F4F7"/>
<path fill-rule="evenodd" clip-rule="evenodd" d="M13.5484 14.4491C13.4359 14.5137 13.4952 14.3695 13.4432 14.3536C13.4785 14.3244 13.5126 14.2947 13.5484 14.2646C13.5508 14.3248 13.6658 14.3114 13.6333 14.3577C13.6138 14.3853 13.6768 14.5116 13.5484 14.4491Z" fill="#E6E9F1"/>
<path fill-rule="evenodd" clip-rule="evenodd" d="M13.0447 14.0871C12.9163 14.1001 13.0487 13.9835 12.9655 13.9864C12.998 13.9559 13.0292 13.9039 13.0658 13.9007C13.0975 13.8974 13.134 13.949 13.1686 13.9774C13.1235 14.0209 13.1304 14.133 13.0447 14.0871Z" fill="#EAEDF3"/>
<path fill-rule="evenodd" clip-rule="evenodd" d="M16.1614 15.0353C16.1878 15.1052 16.2398 15.1145 16.2805 15.1393C16.239 15.186 16.2228 15.2575 16.1367 15.2575C16.0485 15.2583 16.1082 15.1913 16.0883 15.16C16.0392 15.082 16.2208 15.1478 16.1614 15.0353Z" fill="#E4E8F0"/>
<path fill-rule="evenodd" clip-rule="evenodd" d="M15.2417 16.4507C15.2108 16.4966 15.2319 16.5405 15.1499 16.5421C15.056 16.5437 15.0861 16.4751 15.082 16.4539C15.0743 16.419 15.1279 16.3857 15.1588 16.3926C15.1856 16.3975 15.2376 16.4125 15.2417 16.4507Z" fill="#CED5E4"/>
<path fill-rule="evenodd" clip-rule="evenodd" d="M10.8525 15.1491C10.7855 15.1568 10.8411 15.2445 10.7562 15.2417C10.6786 15.2393 10.69 15.1868 10.6815 15.1552C10.6681 15.1109 10.7335 15.1121 10.7481 15.0788C10.779 15.1003 10.8103 15.1218 10.8525 15.1491Z" fill="#DAE0EB"/>
<path fill-rule="evenodd" clip-rule="evenodd" d="M15.0597 15.613C15.0885 15.5915 15.1174 15.5716 15.1478 15.5513C15.1503 15.5963 15.2474 15.5703 15.2149 15.628C15.2015 15.6512 15.2344 15.7146 15.1503 15.7089C15.0747 15.7036 15.0926 15.6508 15.0597 15.613Z" fill="#D8DEE9"/>
<path fill-rule="evenodd" clip-rule="evenodd" d="M14.7509 15.7524C14.7363 15.8324 14.6908 15.8454 14.6408 15.8547C14.5559 15.8689 14.6197 15.8052 14.6059 15.7808C14.5701 15.7199 14.6603 15.7316 14.6709 15.6918C14.6944 15.7227 14.7485 15.7219 14.7509 15.7524Z" fill="#CBD2E3"/>
<path fill-rule="evenodd" clip-rule="evenodd" d="M14.2756 13.1178C14.2472 13.1312 14.285 13.1991 14.224 13.1796C14.1777 13.1637 14.1208 13.1418 14.1249 13.0849C14.1265 13.063 14.1818 13.0447 14.2127 13.0256C14.2179 13.0666 14.3057 13.0532 14.2756 13.1178Z" fill="#D1D8E6"/>
<path fill-rule="evenodd" clip-rule="evenodd" d="M16.5746 14.8996C16.4982 14.9297 16.5327 14.8667 16.5193 14.8484C16.4681 14.779 16.5693 14.7891 16.5746 14.7477C16.6058 14.7684 16.6668 14.792 16.6643 14.8098C16.6626 14.8331 16.6525 14.8549 16.6361 14.8713C16.6196 14.8878 16.5978 14.8978 16.5746 14.8996Z" fill="#DADFEA"/>
<path fill-rule="evenodd" clip-rule="evenodd" d="M12.6465 14.2797C12.6465 14.3268 12.7416 14.3081 12.7095 14.367C12.6965 14.391 12.7241 14.4552 12.6583 14.4418C12.6083 14.4316 12.558 14.4024 12.5563 14.3528C12.5563 14.3297 12.614 14.3049 12.6465 14.2797Z" fill="#CAD2E2"/>
<path fill-rule="evenodd" clip-rule="evenodd" d="M13.9465 15.7495C13.9092 15.732 13.9075 15.6829 13.91 15.6593C13.914 15.628 13.9559 15.5858 13.9916 15.6028C14.0136 15.6134 14.0757 15.6073 14.0607 15.6642C14.0469 15.7186 13.9924 15.7263 13.9465 15.7495Z" fill="#D0D7E5"/>
<path fill-rule="evenodd" clip-rule="evenodd" d="M15.5187 15.678C15.5204 15.6776 15.5488 15.6382 15.5809 15.6374C15.6041 15.6366 15.6276 15.6845 15.6524 15.7113C15.6191 15.7207 15.6475 15.782 15.5817 15.7812C15.5224 15.78 15.5224 15.7532 15.5187 15.678Z" fill="#EFF2F6"/>
<path fill-rule="evenodd" clip-rule="evenodd" d="M12.9049 14.6494C12.894 14.6932 12.894 14.7205 12.855 14.7197C12.8152 14.7188 12.7957 14.7042 12.7965 14.6636C12.7965 14.6315 12.8176 14.6092 12.8416 14.6112C12.8692 14.6132 12.9086 14.6209 12.9049 14.6494Z" fill="#CCD4E3"/>
<path fill-rule="evenodd" clip-rule="evenodd" d="M10.4138 14.0173C10.4333 14.0384 10.4556 14.055 10.4642 14.0766C10.4715 14.0944 10.4601 14.1217 10.4349 14.1245C10.4069 14.1269 10.3768 14.1261 10.3679 14.0912C10.3598 14.0571 10.3894 14.0449 10.4138 14.0173Z" fill="#E0E5EE"/>
<path fill-rule="evenodd" clip-rule="evenodd" d="M10.1265 14.3203C10.1156 14.2736 10.0433 14.3032 10.0384 14.2496C10.0538 14.2902 10.1745 14.1996 10.1265 14.3203Z" fill="#7085B1"/>
<path fill-rule="evenodd" clip-rule="evenodd" d="M9.75812 12.5552C9.74918 12.5052 9.6724 12.5446 9.66833 12.4873C9.68987 12.5214 9.79874 12.4406 9.75812 12.5552Z" fill="#5C75A7"/>
<path fill-rule="evenodd" clip-rule="evenodd" d="M14.2634 12.1534C14.2712 12.1225 14.2959 12.0721 14.2862 12.0628C14.1538 11.945 14.3305 11.9251 14.3569 11.9011C14.4052 11.8544 14.3975 12.0514 14.5251 11.9267C14.4564 12.079 14.3646 12.1229 14.259 12.1489L14.2634 12.1534Z" fill="#E7EAF2"/>
<path fill-rule="evenodd" clip-rule="evenodd" d="M10.3476 12.027C10.2184 12.0144 10.3334 11.8463 10.3054 11.7488C10.2704 11.6228 10.3622 11.6244 10.4516 11.624C10.5901 11.6232 10.6685 11.6817 10.6685 11.828C10.6681 11.9718 10.6015 12.0287 10.3476 12.027Z" fill="#15A24A"/>
<path fill-rule="evenodd" clip-rule="evenodd" d="M15.2835 12.8387C15.2551 12.9257 15.1499 12.9801 15.132 13.0873C15.1304 13.1016 15.0897 13.0987 15.082 13.0573C15.0495 12.8631 15.0479 12.8635 14.9045 12.9675C14.8931 12.976 14.8732 12.9838 14.8622 12.9801C14.8411 12.9708 14.8326 12.9496 14.8452 12.9257C14.8927 12.833 14.9374 12.738 14.9906 12.6482C15.0264 12.5889 15.0698 12.6384 15.1048 12.6555C15.1815 12.6933 15.2762 12.7148 15.2835 12.8387Z" fill="#13A248"/>
<path fill-rule="evenodd" clip-rule="evenodd" d="M15.6471 13.1548C15.5724 13.1848 15.5362 13.1284 15.4883 13.1081C15.4558 13.0943 15.4253 13.0813 15.4034 13.1174C15.3794 13.1556 15.4034 13.1775 15.4363 13.1946C15.4615 13.2072 15.4883 13.2169 15.507 13.2368C15.5399 13.2714 15.6431 13.262 15.6012 13.3356C15.5683 13.3941 15.5131 13.3258 15.4765 13.3043C15.4135 13.2657 15.2888 13.2446 15.3022 13.1775C15.3229 13.0699 15.3843 12.9529 15.4659 12.8789C15.5313 12.8196 15.6036 12.9318 15.6772 12.9598C15.7089 12.9716 15.7629 12.9821 15.7536 13.0321C15.7446 13.0837 15.7064 13.0536 15.6772 13.0467C15.6085 13.0309 15.5419 12.9147 15.4879 12.9951C15.4554 13.0431 15.589 13.063 15.6313 13.1158C15.6378 13.1235 15.6394 13.1341 15.6471 13.1548ZM16.5226 13.7292C16.5348 13.8243 16.4962 13.8889 16.3966 13.8726C16.2935 13.8556 16.2151 13.7926 16.1972 13.6797C16.1956 13.6683 16.2094 13.6451 16.2207 13.6419C16.2273 13.6397 16.2342 13.639 16.2411 13.6399C16.2479 13.6407 16.2545 13.643 16.2603 13.6467C16.2662 13.6503 16.2712 13.6552 16.2749 13.6609C16.2787 13.6667 16.2811 13.6732 16.2821 13.6801C16.2951 13.7577 16.3357 13.7922 16.4174 13.7938C16.4332 13.6667 16.2037 13.6086 16.3357 13.4765C16.4019 13.4103 16.4828 13.4652 16.5405 13.5184C16.5937 13.5667 16.6587 13.6199 16.5616 13.689C16.5478 13.6817 16.5291 13.6699 16.5189 13.678C16.4982 13.6918 16.5185 13.7118 16.5226 13.7292Z" fill="#11A147"/>
<path fill-rule="evenodd" clip-rule="evenodd" d="M13.7166 12.5194C13.6683 12.4922 13.6707 12.4662 13.6784 12.4378C13.6939 12.3772 13.6626 12.3455 13.6073 12.3285C13.5521 12.3106 13.5094 12.313 13.4944 12.3821C13.4891 12.413 13.4729 12.4345 13.4392 12.4231C13.4002 12.4089 13.4197 12.3772 13.427 12.3541C13.4424 12.3009 13.4562 12.2472 13.4806 12.1964C13.5025 12.1457 13.4871 12.0526 13.5671 12.0587C13.652 12.0648 13.7438 12.0851 13.8084 12.1554C13.8373 12.1863 13.8491 12.2395 13.8255 12.2627C13.7568 12.3334 13.7625 12.4333 13.7166 12.5194Z" fill="#0FA046"/>
<path fill-rule="evenodd" clip-rule="evenodd" d="M11.2097 12.0023C11.0784 12.0518 10.9749 12.023 10.8737 12.025C10.8278 12.0262 10.8237 11.9917 10.8237 11.9568C10.827 11.9182 10.827 11.8792 10.827 11.8406C10.8319 11.6265 10.9078 11.5716 11.1183 11.6313C11.1418 11.6378 11.1642 11.6419 11.1658 11.6683C11.1658 11.7049 11.1394 11.7114 11.1069 11.7106C11.1024 11.7098 11.0971 11.7085 11.0914 11.7093C11.0285 11.7248 10.9155 11.6537 10.9135 11.7479C10.9111 11.8203 11.0342 11.7691 11.0971 11.7934C11.1061 11.7971 11.1158 11.8052 11.1296 11.8154C11.0898 11.8873 11.0236 11.8471 10.9724 11.8556C10.9419 11.8605 10.9021 11.8471 10.8977 11.8966C10.892 11.9551 10.9326 11.9523 10.9724 11.9563C11.0403 11.9645 11.1138 11.9389 11.2097 12.0023Z" fill="#0B9F43"/>
<path fill-rule="evenodd" clip-rule="evenodd" d="M10.1311 12.0331C10.0604 12.0177 10.0701 11.9771 10.0579 11.9486C10.0368 11.8962 9.99496 11.8962 9.94905 11.8999C9.89664 11.9048 9.86821 11.9251 9.87268 11.9832C9.87593 12.0116 9.8873 12.0575 9.83449 12.051C9.78899 12.0453 9.80199 12.001 9.79955 11.971C9.79549 11.9218 9.79061 11.8714 9.79549 11.8227C9.80199 11.7683 9.74999 11.685 9.82839 11.6655C9.90924 11.6443 10.0027 11.6293 10.0868 11.6695C10.1233 11.687 10.1522 11.7297 10.1388 11.7642C10.1079 11.8511 10.1323 11.9393 10.1311 12.0331Z" fill="#079D3F"/>
<path fill-rule="evenodd" clip-rule="evenodd" d="M9.27344 11.895C9.28644 11.7849 9.33478 11.6955 9.45544 11.6996C9.57122 11.7033 9.63297 11.7837 9.63297 11.8995C9.63297 12.0144 9.57934 12.0937 9.45706 12.0928C9.33275 12.092 9.2905 12.0018 9.27344 11.895Z" fill="#15A24A"/>
<path fill-rule="evenodd" clip-rule="evenodd" d="M17.0072 13.9587C16.9959 14.068 16.9418 14.1505 16.8171 14.1615C16.7021 14.1708 16.6412 14.105 16.6323 13.9969C16.6221 13.8877 16.7294 13.7832 16.8386 13.7841C16.9345 13.7849 17.0048 13.8543 17.0072 13.9587Z" fill="#11A147"/>
<path fill-rule="evenodd" clip-rule="evenodd" d="M14.7265 12.6872C14.8184 12.7611 14.707 12.8099 14.703 12.872C14.6266 12.8367 14.5311 12.8509 14.4694 12.7839C14.4036 12.7124 14.4158 12.6315 14.4588 12.5527C14.5064 12.4694 14.5795 12.4337 14.6693 12.4654C14.7513 12.4946 14.8127 12.5499 14.7729 12.6539C14.7099 12.6652 14.6583 12.5824 14.5697 12.638C14.6286 12.6652 14.6993 12.6275 14.7265 12.6872Z" fill="#0C9F43"/>
<path fill-rule="evenodd" clip-rule="evenodd" d="M12.5166 11.8503C12.4629 11.9133 12.4235 11.8889 12.3866 11.8897C12.3508 11.8897 12.3126 11.8601 12.2683 11.897C12.3082 11.962 12.4044 11.9202 12.4418 11.9848C12.4365 11.9941 12.4341 12.0067 12.4272 12.0132C12.3736 12.0555 12.2878 11.9531 12.2545 12.0376C12.2241 12.1103 12.3041 12.0851 12.3386 12.0973C12.3776 12.1128 12.426 12.1071 12.4731 12.1599C12.3638 12.2078 12.2334 12.1855 12.1883 12.1327C12.1172 12.0494 12.1672 11.9015 12.2212 11.8276C12.285 11.7402 12.4016 11.8255 12.5166 11.8503Z" fill="#19A44D"/>
<path fill-rule="evenodd" clip-rule="evenodd" d="M13.2092 12.2038C13.117 12.194 13.0122 12.129 12.9857 12.2809C12.9849 12.2858 12.9528 12.2927 12.9431 12.2862C12.9321 12.2801 12.926 12.2574 12.9281 12.2444C12.952 12.1481 12.9642 12.0449 13.0069 11.9584C13.0564 11.8609 13.1405 11.9433 13.21 11.9527C13.2929 11.9637 13.3388 12.014 13.3298 12.1014C13.3217 12.1765 13.2648 12.1968 13.2092 12.2038Z" fill="#0D9F44"/>
<path fill-rule="evenodd" clip-rule="evenodd" d="M14.3081 12.4365C14.2992 12.5588 14.239 12.6433 14.1167 12.647C14.0075 12.651 13.9461 12.5742 13.9486 12.4654C13.9518 12.3476 14.0091 12.2622 14.1362 12.2586C14.2528 12.2545 14.2979 12.3329 14.3081 12.4365Z" fill="#0FA046"/>
<path fill-rule="evenodd" clip-rule="evenodd" d="M11.5696 11.9953C11.5561 12.0242 11.5452 12.0652 11.5066 12.0559C11.4396 12.04 11.4696 11.9754 11.4534 11.9332C11.4038 11.8848 11.4168 11.9515 11.4014 11.9637C11.3957 11.9937 11.4095 12.0396 11.3689 12.0457C11.3189 12.0518 11.3307 12.0039 11.3319 11.9754C11.336 11.9161 11.3368 11.854 11.353 11.7971C11.3672 11.7483 11.3156 11.6586 11.4127 11.6577C11.4985 11.6573 11.4798 11.7447 11.4907 11.7971C11.5021 11.8572 11.5082 11.8828 11.5574 11.8231C11.6081 11.8097 11.6187 11.8467 11.6305 11.8824C11.637 11.9344 11.6138 11.9706 11.5696 11.9953Z" fill="#0EA044"/>
<path fill-rule="evenodd" clip-rule="evenodd" d="M15.8965 13.4875C15.9266 13.4875 15.9571 13.5273 15.9863 13.4932C16.0087 13.4676 15.9887 13.4424 15.9688 13.4217C15.9542 13.4058 15.9388 13.3908 15.925 13.3738C15.8835 13.3238 15.8254 13.2758 15.8827 13.2035C15.9347 13.1373 15.9952 13.1536 16.0554 13.1954C16.0663 13.2165 16.0627 13.2368 16.0513 13.2559C16.007 13.3254 16.0895 13.3677 16.0879 13.427C16.1005 13.4826 16.1086 13.5387 16.0472 13.5708C15.9709 13.6114 15.912 13.574 15.8559 13.5253C15.8498 13.4932 15.8616 13.4773 15.8965 13.4875Z" fill="#10A146"/>
<path fill-rule="evenodd" clip-rule="evenodd" d="M14.7266 12.6872C14.6953 12.7091 14.6323 12.638 14.6343 12.6917C14.6384 12.7867 14.5909 12.7782 14.5466 12.7502C14.4869 12.7132 14.4836 12.6498 14.5214 12.5913C14.558 12.534 14.6096 12.5007 14.6721 12.5474C14.7103 12.5755 14.7391 12.6177 14.7721 12.6539L14.7266 12.6872Z" fill="#ECF7F0"/>
<path fill-rule="evenodd" clip-rule="evenodd" d="M11.5964 11.8991C11.5845 11.874 11.5715 11.8494 11.5574 11.8255C11.5716 11.7894 11.5846 11.7528 11.6017 11.7179C11.6171 11.685 11.6439 11.6667 11.6817 11.6789C11.7239 11.6931 11.7207 11.7256 11.7182 11.7597C11.7093 11.8592 11.7012 11.9584 11.6935 12.0579C11.6342 12.0957 11.6191 12.0612 11.6094 12.01C11.6021 11.973 11.6212 11.9332 11.5964 11.8991Z" fill="#17A34C"/>
<path fill-rule="evenodd" clip-rule="evenodd" d="M16.0891 13.4266C16.0525 13.3892 16.0135 13.3538 15.9794 13.314C15.9396 13.2669 15.955 13.2381 16.0144 13.2303C16.1001 13.2494 16.1525 13.2909 16.1273 13.3892C16.1155 13.4014 16.1025 13.4144 16.0891 13.4266Z" fill="#D7EFE0"/>
<path fill-rule="evenodd" clip-rule="evenodd" d="M16.1273 13.3892C16.0879 13.338 16.0773 13.2649 16.0143 13.2304L16.0566 13.195C16.1248 13.2434 16.2496 13.271 16.1273 13.3892Z" fill="#2BAB5B"/>
<path fill-rule="evenodd" clip-rule="evenodd" d="M16.5225 13.7292C16.5173 13.726 16.5104 13.7243 16.5079 13.7199C16.4754 13.6597 16.3678 13.6057 16.4043 13.5525C16.4502 13.4883 16.4982 13.5643 16.5234 13.6191C16.5347 13.6423 16.5485 13.665 16.5615 13.689C16.5481 13.7024 16.5347 13.7158 16.5225 13.7292Z" fill="#E6F5EC"/>
<path fill-rule="evenodd" clip-rule="evenodd" d="M15.8965 13.4875C15.8835 13.5001 15.8709 13.5131 15.8559 13.5257C15.8389 13.5135 15.8153 13.505 15.8043 13.4875C15.7836 13.4481 15.7243 13.3957 15.7929 13.3648C15.8506 13.3372 15.8506 13.4107 15.8693 13.4465C15.877 13.4615 15.8868 13.4741 15.8965 13.4875Z" fill="#29AA59"/>
<path fill-rule="evenodd" clip-rule="evenodd" d="M11.5964 11.8991C11.6557 11.9222 11.6244 11.9718 11.6252 12.0088C11.6285 12.0595 11.6463 12.0766 11.6939 12.0587C11.5947 12.1546 11.6073 12.0266 11.5692 11.9982C11.5793 11.9645 11.587 11.9316 11.5964 11.8991Z" fill="#DDF1E4"/>
<path fill-rule="evenodd" clip-rule="evenodd" d="M11.3994 11.9641V11.8333C11.4554 11.8511 11.457 11.8905 11.4514 11.9336C11.4343 11.9438 11.4164 11.9535 11.3994 11.9641Z" fill="#6FC690"/>
<path fill-rule="evenodd" clip-rule="evenodd" d="M10.387 11.83C10.3927 11.7707 10.3642 11.6935 10.4654 11.7C10.5393 11.7045 10.5929 11.7341 10.597 11.8186C10.6011 11.9096 10.5478 11.9466 10.4637 11.9527C10.3569 11.9612 10.4004 11.8771 10.387 11.83Z" fill="#F5FBF7"/>
<path fill-rule="evenodd" clip-rule="evenodd" d="M15.0718 12.7237C15.1141 12.7469 15.1787 12.7514 15.1925 12.8139C15.1994 12.8464 15.1714 12.868 15.1425 12.8586C15.0889 12.8424 15.0178 12.8416 15.0105 12.766C15.0085 12.7441 15.032 12.7164 15.0718 12.7237Z" fill="#EFF8F3"/>
<path fill-rule="evenodd" clip-rule="evenodd" d="M13.7544 12.2241C13.7434 12.2663 13.7137 12.2809 13.6796 12.2683C13.6337 12.2517 13.5598 12.27 13.559 12.1895C13.5573 12.1477 13.5858 12.1351 13.624 12.1477C13.6743 12.1639 13.7353 12.1619 13.7544 12.2241Z" fill="#DEF2E5"/>
<path fill-rule="evenodd" clip-rule="evenodd" d="M9.95923 11.724C9.99904 11.7288 10.062 11.7077 10.0579 11.7756C10.0539 11.8349 9.99376 11.8255 9.9507 11.8263C9.91617 11.8276 9.86661 11.8454 9.86336 11.7833C9.86092 11.7093 9.91861 11.7325 9.95923 11.724Z" fill="#F3FAF5"/>
<path fill-rule="evenodd" clip-rule="evenodd" d="M9.44528 11.7804C9.51881 11.7853 9.55537 11.8292 9.55822 11.8983C9.56228 11.96 9.53181 12.0128 9.46843 12.0185C9.39531 12.0254 9.3624 11.9698 9.35834 11.9019C9.35428 11.8393 9.37865 11.7938 9.44528 11.7804Z" fill="#F3FAF6"/>
<path fill-rule="evenodd" clip-rule="evenodd" d="M16.9264 13.973C16.9158 14.0404 16.8752 14.0879 16.7968 14.0879C16.7338 14.0871 16.7102 14.0412 16.7167 13.9856C16.7228 13.91 16.7679 13.8612 16.8447 13.8625C16.9052 13.8641 16.9288 13.9076 16.9264 13.973Z" fill="#F9FCFA"/>
<path fill-rule="evenodd" clip-rule="evenodd" d="M13.1137 12.0039C13.1548 12.0291 13.2372 12.0031 13.249 12.0843C13.2527 12.1152 13.2186 12.131 13.1913 12.1249C13.1381 12.1131 13.0638 12.1322 13.0573 12.0465C13.0561 12.0201 13.0678 11.9917 13.1137 12.0039Z" fill="#E7F5EC"/>
<path fill-rule="evenodd" clip-rule="evenodd" d="M14.2269 12.4463C14.2192 12.5166 14.1846 12.5657 14.1135 12.5657C14.0437 12.5665 14.0189 12.5178 14.0221 12.4536C14.0278 12.3829 14.068 12.3358 14.1367 12.3329C14.2049 12.3305 14.2269 12.3849 14.2269 12.4463Z" fill="#F5FBF7"/>
</svg>
