<svg width="30" height="19" viewBox="0 0 30 19" fill="none" xmlns="http://www.w3.org/2000/svg">
<path d="M0 0V18.3048H8.25845V0H0ZM6.00066 16.7767C5.85649 16.7767 5.71555 16.7339 5.59567 16.6538C5.4758 16.5737 5.38236 16.4599 5.32719 16.3267C5.27202 16.1935 5.25758 16.0469 5.28571 15.9055C5.31384 15.7641 5.38326 15.6342 5.48521 15.5323C5.58716 15.4303 5.71704 15.3609 5.85845 15.3328C5.99985 15.3046 6.14642 15.3191 6.27962 15.3742C6.41282 15.4294 6.52667 15.5228 6.60677 15.6427C6.68687 15.7626 6.72962 15.9035 6.72962 16.0477C6.72962 16.241 6.65282 16.4265 6.51611 16.5632C6.37941 16.6999 6.19399 16.7767 6.00066 16.7767ZM7.1935 4.24122H1.05434V3.18091H7.19284V4.24122H7.1935ZM7.1935 2.12061H1.05434V1.0603H7.19284V2.12061H7.1935ZM17.3327 14.613H22.1769V17.2445H24.943V18.3048H14.5679V17.2445H17.334V14.613H17.3327ZM9.51292 0V13.5527H30V0H9.51226H9.51292ZM28.9397 12.4924H10.5726V1.0603H28.9397V12.4924Z" fill="white"/>
</svg>
