<svg width="40" height="40" viewBox="0 0 40 40" fill="none" xmlns="http://www.w3.org/2000/svg">
<path d="M31.8875 14.3875V7.11253H24.628L19.4691 2L14.3875 7.11253H7.11253V14.3875L2 19.4691L7.11253 24.628V31.8875H14.3875L19.4691 37L24.628 31.8875H31.8875V24.628L37 19.4691L31.8875 14.3875ZM14.5728 11.8235C16.0865 11.8235 17.3067 13.0437 17.3067 14.5728C17.3067 15.2979 17.0187 15.9933 16.506 16.506C15.9933 17.0187 15.2979 17.3067 14.5728 17.3067C13.0437 17.3067 11.8235 16.0865 11.8235 14.5728C11.8235 13.0437 13.0437 11.8235 14.5728 11.8235ZM24.4426 27.192C22.929 27.192 21.7087 25.9563 21.7087 24.4426C21.7087 23.7176 21.9968 23.0222 22.5095 22.5095C23.0222 21.9968 23.7176 21.7087 24.4426 21.7087C25.9563 21.7087 27.192 22.929 27.192 24.4426C27.192 25.1718 26.9023 25.8711 26.3867 26.3867C25.8711 26.9023 25.1718 27.192 24.4426 27.192ZM14.0631 27.2383L11.7462 24.9214L24.9214 11.7462L27.2383 14.0631L14.0631 27.2383Z" fill="white"/>
</svg>
