<svg width="24" height="31" viewBox="0 0 24 31" fill="none" xmlns="http://www.w3.org/2000/svg">
<path d="M21.7199 14.1226C21.3257 13.6059 20.8458 13.1582 20.4001 12.7104C19.2518 11.677 17.9492 10.9364 16.8522 9.85139C14.2984 7.33688 13.7328 3.1862 15.3611 0C13.7328 0.396122 12.3102 1.2917 11.0933 2.2734C6.65408 5.85572 4.90583 12.1765 6.99687 17.6016C7.06543 17.7738 7.13399 17.9461 7.13399 18.17C7.13399 18.5489 6.8769 18.8933 6.5341 19.0311C6.13989 19.2033 5.72853 19.1 5.40288 18.8244C5.3056 18.7425 5.22425 18.6433 5.16292 18.5316C3.22613 16.0688 2.91762 12.5381 4.22024 9.71361C1.35791 12.0559 -0.201809 16.0171 0.0210077 19.7545C0.123846 20.6156 0.226684 21.4767 0.518059 22.3379C0.758016 23.3712 1.22079 24.4046 1.73498 25.3174C3.58607 28.2969 6.7912 30.4325 10.2363 30.8631C13.9042 31.3281 17.8292 30.6564 20.6401 28.1075C23.7767 25.2485 24.8736 20.6673 23.2625 16.7405L23.0396 16.2927C22.6797 15.5004 21.7199 14.1226 21.7199 14.1226ZM16.3037 24.9729C15.8238 25.3863 15.0354 25.8341 14.4184 26.0063C12.4987 26.6952 10.5791 25.7307 9.44785 24.594C11.4875 24.1118 12.7044 22.5962 13.0643 21.0634C13.3557 19.6856 12.8072 18.5489 12.5844 17.2227C12.3787 15.9482 12.413 14.8632 12.8758 13.6748C13.2015 14.3293 13.5442 14.9838 13.9556 15.5004C15.2754 17.2227 17.3493 17.9805 17.7949 20.3228C17.8635 20.5639 17.8977 20.805 17.8977 21.0634C17.9492 22.4756 17.3321 24.0257 16.3037 24.9729Z" fill="white"/>
</svg>
