<svg width="13" height="15" viewBox="0 0 13 15" fill="white" xmlns="http://www.w3.org/2000/svg">
<path d="M1.21062 1.46485e-05C0.353121 1.46485e-05 0.0374956 0.316265 0.0374956 1.17439V11.525C0.0367679 11.6154 0.0409407 11.7057 0.0499956 11.7956C0.0693706 11.9831 0.0731207 12.1644 0.247496 12.3706C0.264371 12.3913 0.441871 12.5238 0.441871 12.5238C0.537496 12.5706 0.603121 12.605 0.710621 12.6488L5.92 14.8306C6.19062 14.955 6.30375 15.0031 6.5 14.9994H6.50125C6.6975 15.0031 6.81062 14.955 7.08125 14.8306L12.2906 12.6481C12.3981 12.6044 12.4637 12.5706 12.5594 12.5231C12.5594 12.5231 12.7369 12.3913 12.7537 12.3713C12.9287 12.165 12.9319 11.9831 12.9512 11.7963C12.9603 11.7061 12.9645 11.6156 12.9637 11.525V1.17439C12.9637 0.316265 12.6475 -0.000610352 11.79 -0.000610352L1.21062 1.46485e-05ZM9.56437 1.94376H9.98937C10.7006 1.94376 11.0444 2.28939 11.0444 3.00376V4.17876H10.1856V3.05376C10.1856 2.82314 10.0794 2.71626 9.85875 2.71626H9.71187C9.4825 2.71626 9.37625 2.82251 9.37625 3.05314V6.68439C9.37625 6.91501 9.4825 7.02189 9.71187 7.02189H9.87562C10.0962 7.02189 10.2025 6.91501 10.2025 6.68439V5.38689H11.0606V6.72626C11.0606 7.44127 10.7094 7.79501 9.99812 7.79501H9.56437C8.85312 7.79501 8.50187 7.44127 8.50187 6.72626V3.01251C8.50187 2.29751 8.85312 1.94439 9.56437 1.94439V1.94376ZM1.94812 1.99376H3.89437V2.79001H2.82312V4.41689H3.85312V5.21377H2.82312V6.94752H3.91062V7.74439H1.94812V1.99376ZM4.33312 1.99376H5.70687C6.41812 1.99376 6.76937 2.34626 6.76937 3.06126V4.58939C6.76937 5.30439 6.41812 5.65814 5.70687 5.65814H5.2075V7.74439H4.3325L4.33312 1.99376ZM7.16437 1.99376H8.03937V7.74439H7.16437V1.99376ZM5.20812 2.76564V4.88564H5.5675C5.78875 4.88564 5.89437 4.77876 5.89437 4.54814V3.10314C5.89437 2.87314 5.78812 2.76564 5.5675 2.76564H5.20812ZM2.87062 9.10751C2.99678 9.10791 3.12185 9.13076 3.24 9.17502C3.35142 9.22052 3.45482 9.28362 3.54625 9.36189L3.26375 9.70314C3.20562 9.65368 3.14082 9.61265 3.07125 9.58126C2.99937 9.55157 2.92212 9.5371 2.84437 9.53876C2.78408 9.53907 2.7245 9.55184 2.66937 9.57626C2.61638 9.60056 2.56878 9.63519 2.52937 9.67814C2.48904 9.72268 2.45707 9.77413 2.435 9.83002C2.41148 9.88949 2.3996 9.95293 2.4 10.0169V10.0219C2.40018 10.088 2.41203 10.1536 2.435 10.2156C2.45662 10.273 2.49005 10.3252 2.53312 10.3688C2.57527 10.412 2.62592 10.4461 2.68187 10.4688C2.74205 10.493 2.80637 10.5053 2.87125 10.505C2.96905 10.5086 3.06576 10.4834 3.14937 10.4325V10.2206H2.80687V9.86751H3.60625V10.6519C3.50748 10.7321 3.39704 10.7969 3.27875 10.8438C3.14279 10.8968 2.9978 10.9229 2.85187 10.9206C2.72332 10.9227 2.59557 10.9 2.47562 10.8538C2.36507 10.8107 2.26369 10.7471 2.17687 10.6663C2.0923 10.5857 2.02473 10.489 1.97812 10.3819C1.92863 10.2676 1.90412 10.144 1.90625 10.0194V10.0144C1.90461 9.89201 1.92867 9.77064 1.97687 9.65814C2.02339 9.551 2.08953 9.45349 2.17187 9.37064C2.25645 9.28677 2.35726 9.22106 2.46812 9.17752C2.58712 9.13071 2.714 9.10715 2.84187 9.10814H2.87L2.87062 9.10751ZM10.3475 9.11251C10.4773 9.11212 10.6063 9.13194 10.73 9.17126C10.8453 9.20927 10.9526 9.26793 11.0469 9.34439L10.8056 9.68564C10.7307 9.6319 10.6486 9.58878 10.5619 9.55752C10.484 9.52966 10.4021 9.51488 10.3194 9.51377C10.2737 9.51073 10.2282 9.5221 10.1894 9.54626C10.176 9.55472 10.1649 9.56643 10.1573 9.58031C10.1496 9.5942 10.1456 9.60979 10.1456 9.62564V9.63064C10.1453 9.64907 10.15 9.66724 10.1594 9.68314C10.1714 9.70072 10.1878 9.71491 10.2069 9.72439C10.2365 9.73931 10.2672 9.75185 10.2987 9.76189C10.3375 9.77439 10.3867 9.7871 10.4462 9.80002C10.5376 9.81871 10.6274 9.8442 10.715 9.87626C10.788 9.90174 10.8571 9.93752 10.92 9.98252C10.974 10.022 11.0183 10.0733 11.0494 10.1325C11.0805 10.1983 11.0957 10.2704 11.0937 10.3431V10.3481C11.0945 10.4305 11.0773 10.512 11.0431 10.5869C11.0098 10.6565 10.9608 10.7175 10.9 10.765C10.8347 10.8169 10.7597 10.8551 10.6794 10.8775C10.5859 10.9041 10.489 10.917 10.3919 10.9156C10.241 10.916 10.0911 10.8915 9.94812 10.8431C9.81116 10.797 9.68504 10.7234 9.5775 10.6269L9.84625 10.3056C10.0196 10.4452 10.2071 10.515 10.4087 10.515C10.4598 10.5179 10.5107 10.5071 10.5562 10.4838C10.572 10.475 10.5851 10.4621 10.5941 10.4465C10.6031 10.4308 10.6078 10.4131 10.6075 10.395V10.39C10.6077 10.3731 10.6034 10.3565 10.595 10.3419C10.5835 10.3246 10.5678 10.3104 10.5494 10.3006C10.5206 10.2854 10.4908 10.2725 10.46 10.2619C10.412 10.247 10.3634 10.2341 10.3144 10.2231C10.2274 10.2033 10.1412 10.1797 10.0562 10.1525C9.9829 10.1291 9.91324 10.0955 9.84937 10.0525C9.79171 10.0136 9.74414 9.96157 9.71062 9.90064C9.67454 9.83127 9.65689 9.75379 9.65937 9.67564V9.67064C9.65923 9.59347 9.67498 9.51709 9.70562 9.44627C9.7364 9.37804 9.78211 9.31759 9.83937 9.26939C9.902 9.21738 9.97418 9.1781 10.0519 9.15376C10.1423 9.12491 10.2369 9.11098 10.3319 9.11251H10.3475ZM4.49875 9.12814H4.9625L5.70187 10.8844H5.18625L5.05937 10.5725H4.38937L4.26562 10.8838H3.75937L4.49875 9.12814ZM5.87187 9.14064H6.38062L6.795 9.81564L7.20937 9.14064H7.71812V10.8844H7.23937V9.88314L6.795 10.565H6.785L6.34312 9.88814V10.8838H5.87187V9.14064ZM8.04 9.14064H9.43687V9.55189H8.51625V9.81564H9.35V10.1969H8.51625V10.4731H9.44937V10.8844H8.04V9.14064ZM4.7275 9.70127L4.53062 10.1969H4.92062L4.7275 9.70127ZM4.01187 12.945H9.02062L6.46437 13.7875L4.01187 12.945Z" fill="white"/>
</svg>
