<svg width="30" height="9" viewBox="0 0 30 9" fill="none" xmlns="http://www.w3.org/2000/svg">
<path d="M30 8.54621L26.0544 1.02872C25.9137 0.753244 25.7145 0.511827 25.4708 0.321333C25.1846 0.108379 24.8363 -0.00449163 24.4797 0.000136877C24.1311 -0.00436541 23.7912 0.108795 23.5148 0.321333C23.2711 0.511827 23.0719 0.753244 22.9312 1.02872C21.6121 3.53713 20.2882 6.04297 18.9593 8.54621H21.1327L24.4797 2.13103L26.0519 5.14553H23.6311L24.4847 6.77776H26.903L27.8266 8.54621H30ZM4.36302 6.72152C4.04007 6.72885 3.71891 6.67157 3.4184 6.55305C3.1179 6.43453 2.8441 6.25716 2.6131 6.03135C2.3821 5.80553 2.19856 5.53584 2.07325 5.2381C1.94793 4.94036 1.88338 4.62058 1.88338 4.29754C1.88338 3.97451 1.94793 3.65473 2.07325 3.35699C2.19856 3.05925 2.3821 2.78956 2.6131 2.56375C2.8441 2.33793 3.1179 2.16056 3.4184 2.04204C3.71891 1.92352 4.04007 1.86624 4.36302 1.87357L9.2797 1.86982V0.0501285H4.24804C3.12139 0.0501285 2.04089 0.497688 1.24422 1.29435C0.44756 2.09101 0 3.17152 0 4.29817C0 5.42482 0.44756 6.50533 1.24422 7.30199C2.04089 8.09865 3.12139 8.54621 4.24804 8.54621H9.27845V3.38707H3.82061V5.20802H7.37627V6.72527L4.36302 6.72152ZM13.399 5.20802H17.2296C17.9136 5.20802 18.5696 4.93631 19.0532 4.45266C19.5369 3.96902 19.8086 3.31305 19.8086 2.62907C19.8086 1.94509 19.5369 1.28913 19.0532 0.805483C18.5696 0.321837 17.9136 0.0501285 17.2296 0.0501285H12.6729C11.6681 0.0501285 10.8532 0.864992 10.8519 1.86982H17.0972C17.2969 1.86836 17.4894 1.94459 17.634 2.08242C17.7786 2.22024 17.8639 2.40887 17.872 2.60845C17.8748 2.70802 17.858 2.80718 17.8225 2.90023C17.7869 2.99328 17.7334 3.07841 17.6649 3.15074C17.5964 3.22306 17.5143 3.28117 17.4233 3.32172C17.3323 3.36227 17.2342 3.38448 17.1346 3.38707H13.1353C11.7943 3.38707 10.7082 4.47439 10.7082 5.81542V8.54621H17.5233L18.4882 6.72527H12.6129V5.99539C12.6129 5.78656 12.6959 5.58629 12.8435 5.43863C12.9912 5.29097 13.1914 5.20802 13.4003 5.20802" fill="white"/>
</svg>
