<svg width="24" height="23" viewBox="0 0 24 23" fill="none" xmlns="http://www.w3.org/2000/svg">
<path d="M1.16666 6.58335V15.25C1.16666 15.8247 1.39493 16.3758 1.80126 16.7821C2.20759 17.1884 2.75869 17.4167 3.33332 17.4167H4.41666M1.16666 6.58335V4.41669C1.16666 3.84205 1.39493 3.29095 1.80126 2.88462C2.20759 2.47829 2.75869 2.25002 3.33332 2.25002H5.49999M1.16666 6.58335C2.31593 6.58335 3.41813 6.12681 4.23079 5.31415C5.04344 4.50149 5.49999 3.39929 5.49999 2.25002M5.49999 2.25002H19.5833M9.57766 12C9.02418 11.3809 8.72873 10.5733 8.75196 9.74313C8.77519 8.91297 9.11535 8.1232 9.70259 7.53595C10.2898 6.94871 11.0796 6.60855 11.9098 6.58532C12.7399 6.56209 13.5475 6.85754 14.1667 7.41102M1.16666 20.6667L20.6667 1.16669M21.9883 18.5509L22.5831 11.7682C22.6643 10.8311 21.9352 10.0024 20.9537 9.91569L20.0654 9.83877M18.1382 21.6319L19.9148 21.7879C20.8963 21.8735 21.7587 21.1834 21.841 20.2474L21.9894 18.5509C20.0253 18.3798 18.3017 19.7589 18.1382 21.6319ZM18.1382 21.6319L6.58332 20.6212M11.2926 16.8544C11.7357 17.4178 12.3109 17.7049 13.1017 17.7742C14.574 17.9031 15.8675 16.8685 15.9899 15.4634C16.056 14.7094 15.8978 14.0887 15.393 13.5752" stroke="white" stroke-width="2" stroke-linecap="round" stroke-linejoin="round"/>
</svg>
