<svg width="15" height="16" viewBox="0 0 15 16" fill="none" xmlns="http://www.w3.org/2000/svg">
<path d="M14.7418 9.95413L13.3027 8.67244C12.886 8.3016 12.886 7.69409 13.3027 7.32325L14.7418 6.04073C15.1585 5.66989 15.0477 5.32488 14.4952 5.27072L12.5868 5.08988C12.0351 5.03821 11.7368 4.56237 11.9276 4.03486L12.9401 1.21565C13.1302 0.686476 12.8976 0.494806 12.4243 0.787311L10.1734 2.179C10.0619 2.24885 9.93735 2.29517 9.8073 2.31511C9.67725 2.33505 9.5445 2.32818 9.4172 2.29493C9.2899 2.26168 9.17075 2.20275 9.06706 2.12177C8.96337 2.04078 8.87734 1.93945 8.81425 1.82399L7.99924 0.368971C7.72506 -0.121037 7.27256 -0.122704 6.99339 0.362304L6.23587 1.67899C5.95504 2.1665 5.31253 2.37317 4.80835 2.14233L3.475 1.53066C2.96832 1.29732 2.58081 1.56566 2.61081 2.12733L2.68248 3.47319C2.71332 4.03486 2.29831 4.61237 1.76247 4.75738L0.474947 5.10238C-0.0600617 5.24738 -0.158397 5.66906 0.258277 6.0399L1.69747 7.32242C2.11414 7.69326 2.11414 8.30077 1.69747 8.67161L0.258277 9.95413C-0.158397 10.325 -0.0483949 10.685 0.502447 10.7516L2.24831 10.9633C2.79915 11.03 3.10582 11.5217 2.92999 12.0558L2.03497 14.7709C1.85914 15.305 2.10997 15.5117 2.59165 15.2334L4.64418 14.045C4.88364 13.9124 5.1639 13.8738 5.4303 13.9367C5.6967 13.9995 5.93012 14.1594 6.08504 14.385L6.93672 15.6676C7.24672 16.1334 7.71256 16.1084 7.97007 15.6109L8.71925 14.1667C8.84397 13.9271 9.05735 13.7457 9.31391 13.6612C9.57046 13.5766 9.84988 13.5957 10.0926 13.7142L11.5376 14.4367C12.036 14.6842 12.4185 14.4284 12.3885 13.8684L12.316 12.5208C12.2868 11.9592 12.7001 11.3833 13.2377 11.2383L14.5235 10.8916C15.0602 10.7466 15.1585 10.325 14.7418 9.95413ZM8.33341 11.3341H6.66671V9.66745H8.33341V11.3341ZM8.33341 8.83411H6.66671V4.66737H8.33341V8.83411Z" fill="white"/>
</svg>
