<svg width="15" height="15" viewBox="0 0 15 15" fill="none" xmlns="http://www.w3.org/2000/svg">
<path d="M7.5 0C8.48491 0 9.46018 0.193993 10.3701 0.570904C11.2801 0.947814 12.1069 1.50026 12.8033 2.1967C13.4997 2.89314 14.0522 3.71993 14.4291 4.62987C14.806 5.53982 15 6.51509 15 7.5C15 9.48912 14.2098 11.3968 12.8033 12.8033C11.3968 14.2098 9.48912 15 7.5 15C4.05 15 1.1625 12.69 0.27 9.5475L3.1425 10.7325C3.24093 11.2129 3.50212 11.6447 3.88198 11.9549C4.26184 12.265 4.73709 12.4346 5.2275 12.435C6.3975 12.435 7.35 11.4825 7.35 10.3125V10.215L9.9 8.3925H9.96C11.52 8.3925 12.7875 7.125 12.7875 5.565C12.7875 4.005 11.52 2.7375 9.96 2.7375C8.4 2.7375 7.125 4.005 7.125 5.565V5.6025L5.3475 8.1975L5.2275 8.19C4.785 8.19 4.3725 8.325 4.035 8.5575L0 6.9C0.3225 3.0375 3.5475 0 7.5 0ZM4.71 11.3775C5.31 11.625 6 11.3475 6.2475 10.7475C6.495 10.1475 6.21 9.465 5.625 9.2175L4.665 8.82C5.0325 8.685 5.445 8.6775 5.835 8.8425C6.2325 9 6.54 9.3075 6.6975 9.705C6.8625 10.095 6.8625 10.53 6.6975 10.92C6.375 11.73 5.4225 12.12 4.6125 11.7825C4.2375 11.625 3.9525 11.34 3.795 11.0025L4.71 11.3775ZM11.85 5.565C11.85 6.6075 11.0025 7.455 9.96 7.455C9.46004 7.45302 8.98124 7.25302 8.62841 6.89879C8.27559 6.54456 8.0775 6.06496 8.0775 5.565C8.07651 5.31751 8.12452 5.07227 8.21878 4.84343C8.31303 4.61458 8.45166 4.40666 8.62666 4.23166C8.80166 4.05666 9.00958 3.91803 9.23843 3.82378C9.46727 3.72952 9.71251 3.68151 9.96 3.6825C10.46 3.6825 10.9396 3.88059 11.2938 4.23341C11.648 4.58624 11.848 5.06504 11.85 5.565ZM8.55 5.565C8.55 6.345 9.18 6.9825 9.9675 6.9825C10.7475 6.9825 11.3775 6.345 11.3775 5.565C11.3775 4.785 10.7475 4.1475 9.9675 4.1475C9.18 4.1475 8.55 4.785 8.55 5.565Z" fill="white"/>
</svg>
